# xmcd CD database file generated by OrangeCD 4.2
#
# Track frame offsets:
#	150
#	11837
#	23445
#	36220
#	51977
#	65110
#	78632
#	92457
#	105232
#	116767
#	129897
#	140550
#	151587
#	164550
#	179817
#	191797
#	203360
#	221875
#	235410
#	246807
#	259577
#	273622
#	284115
#
# Disc length: 3954 seconds
#
# Revision: 2
# Processed by: cddbd v1.4PL0 Copyright (c) Steve Scherf et al.
# Submitted via: OrangeCD 4.2
#
DISCID=540f7017
DTITLE=Sonny Boy Williamson - The Essential (Disk One)
DYEAR=1900
DGENRE=Blues
TTITLE0=Good Evening Everybody
TTITLE1=Don't Start Me To Talkin'
TTITLE2=All My Love In Vain
TTITLE3=You Killing Me
TTITLE4=Let Me Explain
TTITLE5=Your Imagination
TTITLE6=Don't Lose Your Eye
TTITLE7=Keep It To Yourself
TTITLE8=The Key (To Your Door)
TTITLE9=Have You Ever Been In Love
TTITLE10=Fattening Frogs For Snakes
TTITLE11=I Don't Know
TTITLE12=Like Wolf
TTITLE13=Cross My Heart
TTITLE14=Ninety Nine
TTITLE15=Born Blind
TTITLE16=Little Village
TTITLE17=Unseen Eye
TTITLE18=Your Funeral And My Trial
TTITLE19=Keep Your Hands Out Of My Pocket
TTITLE20=Unseeing Eye
TTITLE21=Let Your Conscience Be Your Guide
TTITLE22=The Goat
EXTD=
EXTT0=
EXTT1=
EXTT2=
EXTT3=
EXTT4=
EXTT5=
EXTT6=
EXTT7=
EXTT8=
EXTT9=
EXTT10=
EXTT11=
EXTT12=
EXTT13=
EXTT14=
EXTT15=
EXTT16=
EXTT17=
EXTT18=
EXTT19=
EXTT20=
EXTT21=
EXTT22=
PLAYORDER=
